<mxfile host="app.diagrams.net" modified="2023-12-13T05:44:39.554Z" agent="Mozilla/5.0 (Windows NT 10.0; Win64; x64) AppleWebKit/537.36 (KHTML, like Gecko) Chrome/120.0.0.0 Safari/537.36" etag="XgGyQBZ81XFTJbnY3N5p" version="22.1.8" type="device">
  <diagram name="Page-1" id="F3vIQKPjNVxUXLWmiYwv">
    <mxGraphModel dx="1900" dy="1666" grid="1" gridSize="10" guides="1" tooltips="1" connect="1" arrows="1" fold="1" page="1" pageScale="1" pageWidth="850" pageHeight="1100" math="0" shadow="0">
      <root>
        <mxCell id="0" />
        <mxCell id="1" parent="0" />
        <mxCell id="Y5HvopBTYCunu6nnopGu-1" value="User" style="html=1;whiteSpace=wrap;fillColor=#dae8fc;strokeColor=#6c8ebf;" parent="1" vertex="1">
          <mxGeometry x="150" y="100" width="110" height="50" as="geometry" />
        </mxCell>
        <mxCell id="Y5HvopBTYCunu6nnopGu-3" value="UserFeedback" style="html=1;whiteSpace=wrap;fillColor=#ffe6cc;strokeColor=#d79b00;" parent="1" vertex="1">
          <mxGeometry x="-60" y="110" width="110" height="50" as="geometry" />
        </mxCell>
        <mxCell id="Y5HvopBTYCunu6nnopGu-4" value="CommunityForum" style="html=1;whiteSpace=wrap;fillColor=#dae8fc;strokeColor=#6c8ebf;" parent="1" vertex="1">
          <mxGeometry x="425" y="100" width="110" height="50" as="geometry" />
        </mxCell>
        <mxCell id="Y5HvopBTYCunu6nnopGu-8" value="HelpCenter" style="html=1;whiteSpace=wrap;fillColor=#ffe6cc;strokeColor=#d79b00;" parent="1" vertex="1">
          <mxGeometry x="760" y="260" width="110" height="50" as="geometry" />
        </mxCell>
        <mxCell id="Y5HvopBTYCunu6nnopGu-13" value="UserProfile" style="html=1;whiteSpace=wrap;fillColor=#ffe6cc;strokeColor=#d79b00;" parent="1" vertex="1">
          <mxGeometry x="20" y="240" width="110" height="50" as="geometry" />
        </mxCell>
        <mxCell id="Y5HvopBTYCunu6nnopGu-14" value="NutritionalValue" style="html=1;whiteSpace=wrap;fillColor=#ffe6cc;strokeColor=#d79b00;" parent="1" vertex="1">
          <mxGeometry x="-90" y="370" width="110" height="50" as="geometry" />
        </mxCell>
        <mxCell id="Y5HvopBTYCunu6nnopGu-30" value="" style="endArrow=block;startArrow=block;endFill=1;startFill=1;html=1;rounded=0;" parent="1" edge="1">
          <mxGeometry width="160" relative="1" as="geometry">
            <mxPoint x="50" y="135" as="sourcePoint" />
            <mxPoint x="150" y="134.5" as="targetPoint" />
          </mxGeometry>
        </mxCell>
        <mxCell id="Y5HvopBTYCunu6nnopGu-38" value="" style="endArrow=block;startArrow=block;endFill=1;startFill=1;html=1;rounded=0;entryX=0;entryY=0.5;entryDx=0;entryDy=0;" parent="1" target="Y5HvopBTYCunu6nnopGu-4" edge="1">
          <mxGeometry width="160" relative="1" as="geometry">
            <mxPoint x="260" y="124.33" as="sourcePoint" />
            <mxPoint x="420" y="124.33" as="targetPoint" />
          </mxGeometry>
        </mxCell>
        <mxCell id="Y5HvopBTYCunu6nnopGu-39" value="0...*" style="edgeLabel;html=1;align=center;verticalAlign=middle;resizable=0;points=[];" parent="Y5HvopBTYCunu6nnopGu-38" vertex="1" connectable="0">
          <mxGeometry x="-0.7664" y="-1" relative="1" as="geometry">
            <mxPoint as="offset" />
          </mxGeometry>
        </mxCell>
        <mxCell id="Y5HvopBTYCunu6nnopGu-40" value="0...*" style="edgeLabel;html=1;align=center;verticalAlign=middle;resizable=0;points=[];" parent="Y5HvopBTYCunu6nnopGu-38" vertex="1" connectable="0">
          <mxGeometry x="0.7269" y="1" relative="1" as="geometry">
            <mxPoint as="offset" />
          </mxGeometry>
        </mxCell>
        <mxCell id="Y5HvopBTYCunu6nnopGu-51" value="LiveStatistics" style="html=1;whiteSpace=wrap;fillColor=#ffe6cc;strokeColor=#d79b00;" parent="1" vertex="1">
          <mxGeometry x="510" y="400" width="110" height="50" as="geometry" />
        </mxCell>
        <mxCell id="Y5HvopBTYCunu6nnopGu-52" value="ApplicationInfo" style="html=1;whiteSpace=wrap;fillColor=#dae8fc;strokeColor=#6c8ebf;" parent="1" vertex="1">
          <mxGeometry x="590" y="260" width="110" height="50" as="geometry" />
        </mxCell>
        <mxCell id="Y5HvopBTYCunu6nnopGu-53" value="References" style="html=1;whiteSpace=wrap;fillColor=#ffe6cc;strokeColor=#d79b00;" parent="1" vertex="1">
          <mxGeometry x="750" y="410" width="110" height="50" as="geometry" />
        </mxCell>
        <mxCell id="Y5HvopBTYCunu6nnopGu-54" value="" style="endArrow=diamondThin;endFill=0;endSize=24;html=1;rounded=0;exitX=0.5;exitY=0;exitDx=0;exitDy=0;" parent="1" edge="1">
          <mxGeometry width="160" relative="1" as="geometry">
            <mxPoint x="785" y="410" as="sourcePoint" />
            <mxPoint x="670" y="310" as="targetPoint" />
          </mxGeometry>
        </mxCell>
        <mxCell id="Y5HvopBTYCunu6nnopGu-55" value="" style="endArrow=block;startArrow=block;endFill=1;startFill=1;html=1;rounded=0;entryX=0.25;entryY=1;entryDx=0;entryDy=0;exitX=0.393;exitY=-0.088;exitDx=0;exitDy=0;exitPerimeter=0;" parent="1" edge="1">
          <mxGeometry width="160" relative="1" as="geometry">
            <mxPoint x="560" y="405.5999999999999" as="sourcePoint" />
            <mxPoint x="629.27" y="310" as="targetPoint" />
          </mxGeometry>
        </mxCell>
        <mxCell id="KrW59OdpZerZANSX7a3y-1" value="1" style="endArrow=open;html=1;endSize=12;startArrow=diamondThin;startSize=14;startFill=1;edgeStyle=orthogonalEdgeStyle;align=left;verticalAlign=bottom;rounded=0;" parent="1" edge="1">
          <mxGeometry x="-1" y="3" relative="1" as="geometry">
            <mxPoint x="160" y="380" as="sourcePoint" />
            <mxPoint x="20" y="380" as="targetPoint" />
          </mxGeometry>
        </mxCell>
        <mxCell id="KrW59OdpZerZANSX7a3y-2" value="0..*" style="edgeLabel;html=1;align=center;verticalAlign=middle;resizable=0;points=[];" parent="KrW59OdpZerZANSX7a3y-1" vertex="1" connectable="0">
          <mxGeometry x="0.6502" y="3" relative="1" as="geometry">
            <mxPoint as="offset" />
          </mxGeometry>
        </mxCell>
        <mxCell id="VDzVq6kmBgng3oQ86BCj-1" value="" style="endArrow=block;startArrow=block;endFill=1;startFill=1;html=1;rounded=0;exitX=1;exitY=0.5;exitDx=0;exitDy=0;entryX=0;entryY=0.5;entryDx=0;entryDy=0;" parent="1" source="Y5HvopBTYCunu6nnopGu-52" target="Y5HvopBTYCunu6nnopGu-8" edge="1">
          <mxGeometry width="160" relative="1" as="geometry">
            <mxPoint x="730" y="270" as="sourcePoint" />
            <mxPoint x="770" y="210" as="targetPoint" />
          </mxGeometry>
        </mxCell>
        <mxCell id="VDzVq6kmBgng3oQ86BCj-3" value="1" style="endArrow=open;html=1;endSize=12;startArrow=diamondThin;startSize=14;startFill=1;edgeStyle=orthogonalEdgeStyle;align=left;verticalAlign=bottom;rounded=0;entryX=0.5;entryY=0;entryDx=0;entryDy=0;exitX=0.5;exitY=1;exitDx=0;exitDy=0;" parent="1" source="Y5HvopBTYCunu6nnopGu-1" target="Y5HvopBTYCunu6nnopGu-13" edge="1">
          <mxGeometry x="-1" y="3" relative="1" as="geometry">
            <mxPoint x="200" y="200" as="sourcePoint" />
            <mxPoint x="360" y="200" as="targetPoint" />
          </mxGeometry>
        </mxCell>
        <mxCell id="VDzVq6kmBgng3oQ86BCj-6" value="PDFDocument" style="html=1;whiteSpace=wrap;fillColor=#ffe6cc;strokeColor=#d79b00;" parent="1" vertex="1">
          <mxGeometry x="300" y="620" width="110" height="50" as="geometry" />
        </mxCell>
        <mxCell id="VDzVq6kmBgng3oQ86BCj-15" value="&lt;b&gt;ECOWELL&amp;nbsp;&lt;/b&gt;" style="text;html=1;strokeColor=none;fillColor=none;align=center;verticalAlign=middle;whiteSpace=wrap;rounded=0;" parent="1" vertex="1">
          <mxGeometry x="110" y="-40" width="240" height="30" as="geometry" />
        </mxCell>
        <mxCell id="VDzVq6kmBgng3oQ86BCj-25" value="Recommendation" style="html=1;whiteSpace=wrap;fillColor=#dae8fc;strokeColor=#6c8ebf;" parent="1" vertex="1">
          <mxGeometry x="20" y="500" width="100" height="50" as="geometry" />
        </mxCell>
        <mxCell id="VDzVq6kmBgng3oQ86BCj-26" value="Recipe" style="html=1;whiteSpace=wrap;fillColor=#dae8fc;strokeColor=#6c8ebf;" parent="1" vertex="1">
          <mxGeometry x="300" y="500" width="110" height="50" as="geometry" />
        </mxCell>
        <mxCell id="VDzVq6kmBgng3oQ86BCj-30" value="" style="endArrow=block;startArrow=block;endFill=1;startFill=1;html=1;rounded=0;edgeStyle=orthogonalEdgeStyle;entryX=0.5;entryY=0;entryDx=0;entryDy=0;" parent="1" source="VDzVq6kmBgng3oQ86BCj-24" edge="1">
          <mxGeometry width="160" relative="1" as="geometry">
            <mxPoint x="230" y="394.5" as="sourcePoint" />
            <mxPoint x="365" y="500" as="targetPoint" />
          </mxGeometry>
        </mxCell>
        <mxCell id="VDzVq6kmBgng3oQ86BCj-35" value="0..*" style="edgeLabel;html=1;align=center;verticalAlign=middle;resizable=0;points=[];" parent="VDzVq6kmBgng3oQ86BCj-30" vertex="1" connectable="0">
          <mxGeometry x="-0.8145" relative="1" as="geometry">
            <mxPoint as="offset" />
          </mxGeometry>
        </mxCell>
        <mxCell id="VDzVq6kmBgng3oQ86BCj-36" value="1" style="edgeLabel;html=1;align=center;verticalAlign=middle;resizable=0;points=[];" parent="VDzVq6kmBgng3oQ86BCj-30" vertex="1" connectable="0">
          <mxGeometry x="0.7826" relative="1" as="geometry">
            <mxPoint as="offset" />
          </mxGeometry>
        </mxCell>
        <mxCell id="VDzVq6kmBgng3oQ86BCj-31" value="" style="endArrow=block;startArrow=block;endFill=1;startFill=1;html=1;rounded=0;edgeStyle=orthogonalEdgeStyle;entryX=0;entryY=0.5;entryDx=0;entryDy=0;exitX=0.5;exitY=0;exitDx=0;exitDy=0;" parent="1" source="VDzVq6kmBgng3oQ86BCj-25" target="VDzVq6kmBgng3oQ86BCj-24" edge="1">
          <mxGeometry width="160" relative="1" as="geometry">
            <mxPoint x="-80" y="450" as="sourcePoint" />
            <mxPoint x="80" y="450" as="targetPoint" />
          </mxGeometry>
        </mxCell>
        <mxCell id="VDzVq6kmBgng3oQ86BCj-37" value="1" style="edgeLabel;html=1;align=center;verticalAlign=middle;resizable=0;points=[];" parent="VDzVq6kmBgng3oQ86BCj-31" vertex="1" connectable="0">
          <mxGeometry x="0.736" y="1" relative="1" as="geometry">
            <mxPoint as="offset" />
          </mxGeometry>
        </mxCell>
        <mxCell id="VDzVq6kmBgng3oQ86BCj-38" value="0...*" style="edgeLabel;html=1;align=center;verticalAlign=middle;resizable=0;points=[];" parent="VDzVq6kmBgng3oQ86BCj-31" vertex="1" connectable="0">
          <mxGeometry x="-0.722" y="2" relative="1" as="geometry">
            <mxPoint as="offset" />
          </mxGeometry>
        </mxCell>
        <mxCell id="VDzVq6kmBgng3oQ86BCj-33" value="" style="endArrow=block;startArrow=block;endFill=1;startFill=1;html=1;rounded=0;edgeStyle=orthogonalEdgeStyle;entryX=0;entryY=0.5;entryDx=0;entryDy=0;" parent="1" target="VDzVq6kmBgng3oQ86BCj-26" edge="1">
          <mxGeometry width="160" relative="1" as="geometry">
            <mxPoint x="120" y="524.5" as="sourcePoint" />
            <mxPoint x="280" y="524.5" as="targetPoint" />
          </mxGeometry>
        </mxCell>
        <mxCell id="VDzVq6kmBgng3oQ86BCj-39" value="0..*" style="edgeLabel;html=1;align=center;verticalAlign=middle;resizable=0;points=[];" parent="VDzVq6kmBgng3oQ86BCj-33" vertex="1" connectable="0">
          <mxGeometry x="-0.8267" relative="1" as="geometry">
            <mxPoint as="offset" />
          </mxGeometry>
        </mxCell>
        <mxCell id="VDzVq6kmBgng3oQ86BCj-40" value="1" style="edgeLabel;html=1;align=center;verticalAlign=middle;resizable=0;points=[];" parent="VDzVq6kmBgng3oQ86BCj-33" vertex="1" connectable="0">
          <mxGeometry x="0.7956" y="-1" relative="1" as="geometry">
            <mxPoint as="offset" />
          </mxGeometry>
        </mxCell>
        <mxCell id="VDzVq6kmBgng3oQ86BCj-24" value="Product" style="html=1;whiteSpace=wrap;fillColor=#dae8fc;strokeColor=#6c8ebf;" parent="1" vertex="1">
          <mxGeometry x="160" y="365" width="115" height="60" as="geometry" />
        </mxCell>
        <mxCell id="VDzVq6kmBgng3oQ86BCj-41" value="" style="endArrow=block;startArrow=block;endFill=1;startFill=1;html=1;rounded=0;edgeStyle=orthogonalEdgeStyle;" parent="1" edge="1">
          <mxGeometry width="160" relative="1" as="geometry">
            <mxPoint x="354.5" y="550" as="sourcePoint" />
            <mxPoint x="354.5" y="620" as="targetPoint" />
          </mxGeometry>
        </mxCell>
        <mxCell id="FasIGzd6iQ6S65nxjBKp-5" value="1" style="endArrow=block;startArrow=block;endFill=1;startFill=1;html=1;rounded=0;edgeStyle=orthogonalEdgeStyle;exitX=0.869;exitY=1.032;exitDx=0;exitDy=0;exitPerimeter=0;entryX=0.364;entryY=0;entryDx=0;entryDy=0;entryPerimeter=0;" edge="1" parent="1" source="Y5HvopBTYCunu6nnopGu-1" target="Y5HvopBTYCunu6nnopGu-52">
          <mxGeometry width="160" relative="1" as="geometry">
            <mxPoint x="250" y="220" as="sourcePoint" />
            <mxPoint x="628" y="240" as="targetPoint" />
            <Array as="points">
              <mxPoint x="246" y="200" />
              <mxPoint x="628" y="200" />
              <mxPoint x="628" y="230" />
              <mxPoint x="630" y="230" />
            </Array>
          </mxGeometry>
        </mxCell>
        <mxCell id="FasIGzd6iQ6S65nxjBKp-7" value="1" style="edgeLabel;html=1;align=center;verticalAlign=middle;resizable=0;points=[];" vertex="1" connectable="0" parent="FasIGzd6iQ6S65nxjBKp-5">
          <mxGeometry x="-0.9172" y="-1" relative="1" as="geometry">
            <mxPoint as="offset" />
          </mxGeometry>
        </mxCell>
        <mxCell id="FasIGzd6iQ6S65nxjBKp-6" value="" style="endArrow=block;startArrow=block;endFill=1;startFill=1;html=1;rounded=0;edgeStyle=orthogonalEdgeStyle;exitX=0.615;exitY=1.064;exitDx=0;exitDy=0;exitPerimeter=0;entryX=0.5;entryY=0;entryDx=0;entryDy=0;" edge="1" parent="1" source="Y5HvopBTYCunu6nnopGu-1" target="VDzVq6kmBgng3oQ86BCj-24">
          <mxGeometry width="160" relative="1" as="geometry">
            <mxPoint x="220" y="270" as="sourcePoint" />
            <mxPoint x="380" y="270" as="targetPoint" />
          </mxGeometry>
        </mxCell>
      </root>
    </mxGraphModel>
  </diagram>
</mxfile>
